<?xml version="1.0" encoding="utf-8"?>
<!-- Generator: Adobe Illustrator 27.5.0, SVG Export Plug-In . SVG Version: 6.00 Build 0)  -->
<svg version="1.1" id="Capa_1" xmlns="http://www.w3.org/2000/svg" xmlns:xlink="http://www.w3.org/1999/xlink" x="0px" y="0px"
	 viewBox="0 0 2122 2122" style="enable-background:new 0 0 2122 2122;" xml:space="preserve">
<g>
	<path style="fill:#4FB68F;" d="M938.016,119.574c0,0-1.383,1.613-3.898,4.68c-7.297-1.867-16.34,3.594-13.242,12.711
		c0.313,0.914,0.613,1.84,0.926,2.762c-105.348,135.676-659.996,928.699,281.535,1497.32c1.887-2.855,3.684-5.676,5.539-8.52
		c7.223,120.762,10.871,241.785,10.965,362.855c0.008,13.816,21.434,13.82,21.43,0c-0.102-131.25-4.383-262.465-12.836-393.367
		C1878.785,565,938.016,119.574,938.016,119.574z"/>
	<path style="fill:#4D2402;" d="M1214.289,1304.328c67.465-109.074,113.125-229.602,175.184-341.617
		c6.703-12.098-11.809-22.91-18.504-10.816c-60.68,109.523-105.734,227.148-170.766,334.293
		c-6.918-59.055-14.738-118-23.445-176.805c48.406-110.137,101.777-218.039,158.293-324.231
		c6.492-12.191-12.012-23.019-18.508-10.816c-51.684,97.117-100.711,195.672-145.742,296.055
		c-9.238-59.598-19.395-119.051-30.496-178.332c1.352-0.891,2.516-2.098,3.395-3.535c0.762-0.918,1.449-1.949,1.941-3.211
		c42.488-108.523,98.695-211.277,139.465-320.43c4.848-12.977-15.875-18.523-20.668-5.695
		c-38.012,101.769-89.457,198.035-130.688,298.57c-14.102-72.844-29.605-145.414-46.574-217.66c1.164-0.906,2.199-2.176,2.957-3.942
		c34.516-80.242,72.965-161.855,89.52-248.168c2.594-13.5-18.059-19.262-20.668-5.695c-14.98,78.082-48.016,152.324-79.609,225.125
		c-15.152-62.82-31.352-125.391-48.711-187.672c15.832-54.18,37.91-106.199,53.746-160.328c3.891-13.297-16.793-18.934-20.664-5.695
		c-12.719,43.457-29.43,85.566-43.738,128.519c-23.254-81.184-48.34-161.883-75.41-241.996c-1.02-2.988-2.035-5.988-3.055-8.977
		c-4.422-13.016-25.129-7.426-20.668,5.695c28.082,82.609,54.035,165.844,78.039,249.594
		c-42.754-37.734-85.531-75.438-128.156-113.32c-10.289-9.145-25.504,5.961-15.156,15.16
		c51.258,45.547,102.746,90.832,154.133,136.246c16.34,58.609,31.68,117.48,46.063,176.566
		c-81.555-55.293-158.875-116.629-241.633-170.203c-11.641-7.539-22.371,11.023-10.816,18.504
		c88.863,57.523,171.488,123.953,259.789,182.281c17.457,73.516,33.398,147.367,47.875,221.504
		c-118.496-78.602-241.711-150.023-358.078-231.801c-11.336-7.965-22.027,10.625-10.816,18.504
		c121.801,85.59,251.098,159.863,374.637,242.871c12.688,66.856,24.129,133.941,34.434,201.211
		c-135.234-89.473-281.563-161.504-411.859-258.492c-11.102-8.262-21.766,10.356-10.816,18.504
		c135.191,100.633,287.641,174.391,427.051,268.648c8.781,59.297,16.633,118.731,23.59,178.277
		c-141.746-70.094-273.977-158.879-410.953-237.523c-12.004-6.895-22.797,11.629-10.816,18.504
		c141.375,81.172,277.668,173.188,424.613,244.258c5.832,51.848,11.008,103.773,15.473,155.77
		c-64.242-33.047-126.594-69.656-191.117-102.184c-12.309-6.203-23.16,12.281-10.816,18.504
		c68.844,34.703,135.18,74.105,204.016,108.812c13.426,164.297,20.16,329.215,20.289,494.223c0.008,13.816,21.434,13.82,21.43,0
		c-0.129-168.609-7.133-337.152-21.094-505.051c33.402-46.848,66.414-93.926,97.055-142.645
		c7.383-11.738-11.168-22.484-18.504-10.816c-25.828,41.059-53.344,80.953-81.355,120.527c-4.27-48.191-9.156-96.324-14.605-144.391
		C1206.855,1310.043,1211.438,1308.938,1214.289,1304.328z"/>
</g>
</svg>
